<?xml version="1.0" encoding="UTF-8" standalone="no"?>
<!DOCTYPE svg PUBLIC "-//W3C//DTD SVG 1.1//EN" "http://www.w3.org/Graphics/SVG/1.1/DTD/svg11.dtd">
<svg width="100%" height="100%" viewBox="0 0 3066 919" version="1.1" xmlns="http://www.w3.org/2000/svg" xmlns:xlink="http://www.w3.org/1999/xlink" xml:space="preserve" xmlns:serif="http://www.serif.com/" style="fill-rule:evenodd;clip-rule:evenodd;stroke-linejoin:round;stroke-miterlimit:2;">
    <g transform="matrix(1,0,0,1,-221.168516,-780.791203)">
        <g transform="matrix(3.049805,0,0,3.049805,221.168516,-185.252489)">
            <path d="M880.027,368.881C906.14,401.69 895.078,448.091 871.811,463.93C835.206,488.851 779.997,468.177 783.277,408.49C786.893,342.704 855.388,340.057 880.027,368.881L858.948,381.047C839.75,363.695 812.264,376.614 808.949,401.557C803.933,439.287 824.176,457.684 847.62,450.9C874.513,443.118 876.139,399.222 858.948,381.047L880.027,368.881Z" style="fill:rgb(0,50,99);fill-opacity:1;"/>
        </g>
        <g transform="matrix(3.049805,0,0,3.049805,221.168516,-185.252489)">
            <path d="M457.862,354.556C459.821,352.872 460.112,353.149 496.5,353.149C501.044,353.149 500.947,353.234 505.496,352.986L506.493,352.997C508.165,353.139 509.837,353.281 511.509,353.423C519.395,354.92 531.431,355.656 541.814,371.309C554.125,389.867 549.199,432.822 504.494,433.186C486.892,433.33 482.605,432.186 482.576,435.504C482.275,470.043 484.135,472.289 480.489,472.35C459.008,472.705 458.135,472.39 458.023,470.591C457.445,461.326 457.564,461.327 457.862,354.556L521.964,397.603C522.221,395.579 524.231,379.787 510.363,374.888C504.719,372.895 483.976,373.427 483.574,373.674C481.55,374.914 482.786,412.089 482.874,412.216C483.757,413.486 504.748,412.688 505.51,412.595C520.451,410.762 521.798,398.257 521.964,397.603L457.862,354.556Z" style="fill:rgb(0,50,99);fill-opacity:1;"/>
        </g>
        <g transform="matrix(3.049805,0,0,3.049805,221.168516,-185.252489)">
            <path d="M583.825,353.765C588.035,352.272 600.258,353.735 613.492,352.978C617.312,354.007 616.691,356.003 618.916,362.345C626.004,382.545 626.137,382.377 633.206,402.602C634.232,405.537 644.564,435.097 645.963,439.319C646.679,441.482 646.742,441.389 647.463,443.514C656.481,469.878 659.463,472.336 655.488,472.392C631.325,472.736 630.726,473.159 629.867,471.296C628.918,469.24 622.331,445.928 620.564,445.354C620.245,445.25 579.792,444.638 578.703,445.7C576.919,447.441 571.582,472.049 568.471,472.305C560.861,472.932 546.433,472.46 544.517,472.397C541.594,472.301 543.7,470.354 557.46,429.487C581.036,359.464 580.861,359.453 583.825,353.765L599.516,374.664C599.189,374.643 599.26,373.896 598.933,373.874C597.403,373.774 600.092,375.433 594.647,392.554C593.046,397.587 590.916,407.749 585.567,423.515C584.484,426.709 589.83,425.572 609.5,425.69C613.037,425.711 615.302,426.902 614.197,423.563C612.918,419.699 603.246,390.47 600.358,374.605L599.516,374.664L583.825,353.765Z" style="fill:rgb(0,50,99);fill-opacity:1;"/>
        </g>
        <g transform="matrix(3.049805,0,0,3.049805,221.168516,-185.252489)">
            <path d="M156.809,354.621C160.485,351.556 164.812,353.926 187.476,352.984C189.74,354.008 189.518,354.23 190.461,356.517C209.113,411.144 210.315,410.647 228.701,465.413C228.855,465.894 228.849,465.855 230.526,470.494C230.229,473.176 229.191,472.372 226.5,472.353C207.135,472.221 204.058,473.602 202.756,469.434C195.456,446.066 195.644,445.295 193.573,445.194C193.168,445.175 153.908,445.133 153.451,445.207C151.504,445.519 150.635,449.446 146.018,464.387C143.387,472.9 142.194,472.349 140.499,472.353C117.936,472.395 116.316,472.737 116.808,470.541C117.162,468.961 138.409,407.874 140.303,402.431C141.524,398.918 152.021,368.74 155.451,358.484C156.272,356.028 156.193,356.105 156.809,354.621L184.942,415.348C180.162,399.261 180.116,399.333 178.262,392.565C175.829,383.684 176.257,383.67 174.261,375.583C173.016,370.541 171.278,379.843 170.869,381.586C162.206,418.54 156.702,425.455 160.456,425.727C170.544,426.457 184.468,425.801 186.553,425.702C189.059,425.584 186.408,420.333 184.942,415.348L156.809,354.621Z" style="fill:rgb(0,50,99);fill-opacity:1;"/>
        </g>
        <g transform="matrix(3.049805,0,0,3.049805,221.168516,-185.252489)">
            <path d="M372.525,352.986C395.273,353.922 399.515,351.56 403.202,354.614C407.622,365.47 415.062,387.767 416.032,390.671C423.378,412.688 444,470.381 444.027,470.62C444.245,472.575 442.986,472.514 419.503,472.348C415.85,472.323 416.744,470.855 415.58,467.471C408.476,446.82 409.112,445.194 405.504,445.171C402.377,445.151 367.752,444.931 366.42,445.258C364.301,445.777 358.383,468.458 357.098,471.282C356.25,473.147 355.666,473.036 331.519,472.383C329.546,472.33 331.19,467.799 331.325,467.426C332.745,463.514 339.827,442.677 340.559,440.522C347.758,419.34 347.92,419.506 355.171,398.402C369.334,357.184 369.451,354.289 372.525,352.986L385.855,373.808C382.896,392.331 371.602,424.183 372.683,425.329C372.856,425.513 401.652,426.834 401.25,424.493C400.616,420.807 398.538,421.429 388.186,379.599C387.475,376.725 388.361,373.818 385.855,373.808L372.525,352.986Z" style="fill:rgb(0,50,99);fill-opacity:1;"/>
        </g>
        <g transform="matrix(3.049805,0,0,3.049805,221.168516,-185.252489)">
            <path d="M3.325,423.533C3.293,423.128 3.25,423.145 2.825,418.487C2.727,409.688 -0.092,366.993 42.511,353.542C43.852,353.244 45.193,352.945 46.534,352.647C87.056,344.117 109.673,376.985 109.512,390.502C109.496,391.852 107.734,391.89 107.541,391.894C85.671,392.355 85.173,392.24 84.397,390.556C82.26,385.918 79.062,375.709 62.51,373.423C46.677,371.236 33.052,382.894 29.784,396.569C28.249,402.993 28.351,402.951 28.014,409.49C27.68,415.114 27.859,415.012 28.159,420.533C28.939,424.556 28.753,430.497 35.822,441.268C47.774,459.48 86.908,454.122 86.689,429.485C86.665,426.86 85.14,428.08 63.494,427.638C60.555,427.578 61.02,424.515 61.132,411.492C61.161,408.119 62.988,408.746 93.5,408.746C107.729,408.746 111.045,407.775 111.133,411.504C111.667,434.092 110.39,462.716 72.579,472.763C63.351,475.215 32.189,476.445 16.098,454.826C9.199,445.558 6.571,441.769 3.325,423.533Z" style="fill:rgb(0,50,99);fill-opacity:1;"/>
        </g>
        <g transform="matrix(3.049805,0,0,3.049805,221.168516,-185.252489)">
            <path d="M719.665,427.251C718.374,423.199 719.592,419.104 718.937,411.505C720.497,406.538 722.262,408.746 727.5,408.746C765.961,408.752 765.949,408.673 768.265,408.978C768.819,415.75 768.883,415.679 768.88,422.501C768.88,423.525 768.956,423.426 769.044,424.496C768.318,433.704 768.616,441.493 759.163,455.261C737.393,486.969 656.477,483.071 660.893,407.546C665.15,334.761 756.653,337.429 767.184,388.542C768.294,393.931 765.002,391.897 759.5,391.898C745.093,391.899 743.208,392.695 742.056,389.657C732.396,364.197 682.557,363.697 685.996,418.452C688.693,461.404 739.672,462.115 744.678,430.523C745.473,425.503 742.495,427.651 737.5,427.64C723.098,427.608 723.147,427.99 719.665,427.251Z" style="fill:rgb(0,50,99);fill-opacity:1;"/>
        </g>
        <g transform="matrix(3.049805,0,0,3.049805,221.168516,-185.252489)">
            <path d="M908.112,437.529C908.42,435.955 908.467,436.038 909.544,434.869L910.507,434.863C919.191,435.505 928.677,434.174 932.057,435.717C936.873,462.468 972.124,454.073 976.144,444.322C986.328,419.621 940.283,426.748 920.642,409.326C920.196,408.913 917.073,405.697 916.74,405.319C904.298,390.178 912.262,361.412 937.665,353.963C973.79,343.37 1002.878,365.907 1000.094,387.266C997.501,388.133 979.676,388.205 976.915,387.224C970.833,363.257 939.922,372.016 936.921,381.666C928.112,409.991 996.673,392.712 1002.013,433.582C1005.623,461.207 979.982,472.089 969.453,473.196C914.421,478.983 909.982,449.947 908.112,437.529Z" style="fill:rgb(0,50,99);fill-opacity:1;"/>
        </g>
        <g transform="matrix(3.049805,0,0,3.049805,221.168516,-185.252489)">
            <path d="M244.859,353.722C248.751,352.371 258.492,353.673 266.496,352.976L267.463,352.977C268.663,354.05 268.66,354.014 269.223,355.509C269.21,450.868 269.112,451.473 270.351,451.852C272.713,452.576 319.987,450.933 321.006,452.812C321.077,452.942 322.041,471.199 320.343,472.153C320.308,472.173 320.308,472.38 252.5,472.353C251.873,472.353 245.301,472.35 244.714,471.406C244.493,471.052 244.176,357.251 244.859,353.722Z" style="fill:rgb(0,50,99);fill-opacity:1;"/>
        </g>
        <g transform="matrix(3.049805,0,0,3.049805,221.168516,-185.252489)">
            <path d="M483.874,554.034C471.14,543.83 472.315,524.901 476.748,515.619C487.08,493.992 528.469,496.942 530.287,526.515C532.376,560.495 500.647,565.389 483.874,554.034L494.215,547.982C504.119,553.145 515.819,548.227 517.604,536.523C522.552,504.072 489.769,505.021 486.341,524.467C483.405,541.128 492.539,546.92 494.215,547.982L483.874,554.034Z" style="fill:rgb(0,50,99);fill-opacity:1;"/>
        </g>
        <g transform="matrix(3.049805,0,0,3.049805,221.168516,-185.252489)">
            <path d="M781.86,528.476L781.815,532.529C781.575,534.613 780.5,558.69 754.496,559.336C713.464,560.355 718.735,503.085 748.528,501.878C774.203,500.838 779.76,512.211 781.86,528.476L739.063,540.7C739.79,542.011 743.397,552.261 758.465,549.349C773.573,546.43 776.362,507.26 749.502,511.516C744.281,512.343 732.27,519.902 739.063,540.7L781.86,528.476Z" style="fill:rgb(0,50,99);fill-opacity:1;"/>
        </g>
        <g transform="matrix(3.049805,0,0,3.049805,221.168516,-185.252489)">
            <path d="M91.013,508.846C95.746,516.496 92.548,525.528 86.608,527.675C80.304,529.954 90.656,529.436 94.162,534.727C97.365,539.562 101.78,558.334 73.501,558.705C48.315,559.035 47.421,559.466 46.815,557.417C46.715,557.081 46.743,557.082 46.74,508.5C46.74,505.69 45.793,502.466 49.499,502.456C75.721,502.386 85.053,501.67 91.013,508.846L82.941,537.11C79.496,533.996 79.163,534.517 74.519,534.133C73.514,534.05 59.651,533.452 58.929,534.765C58.515,535.518 58.663,548.204 58.76,548.428C59.296,549.66 59.628,550.151 75.506,549.63C83.703,549.361 87.034,542.953 82.941,537.11L91.013,508.846L79.959,514.113C79.724,513.91 80.428,510.806 60.496,511.464C57.86,511.552 58.658,519.41 58.672,522.494C58.687,525.657 61.531,524.972 71.503,524.875C72.598,524.864 86.373,524.73 79.959,514.113L91.013,508.846Z" style="fill:rgb(0,50,99);fill-opacity:0.99;"/>
        </g>
        <g transform="matrix(3.049805,0,0,3.049805,221.168516,-185.252489)">
            <path d="M268.607,558.341C267.194,553.886 268.565,520.068 267.892,505.502C268.757,500.625 270.645,502.468 275.5,502.456C290.272,502.419 309.558,500.358 316.591,519.464C319.208,526.573 322.137,558.255 289.501,558.704C271.739,558.949 270.249,558.659 268.607,558.341L300.936,544.932C305.662,539.453 305.329,537.67 305.85,532.515C306.617,524.929 303.78,519.652 303.246,518.658C298.822,510.427 281.092,510.923 280.331,512.366C279.058,514.782 279.508,514.887 279.91,546.497C279.917,547.044 279.889,549.216 281.519,549.375C294.482,550.635 299.742,545.987 300.936,544.932L268.607,558.341Z" style="fill:rgb(0,50,99);fill-opacity:1;"/>
        </g>
        <g transform="matrix(3.049805,0,0,3.049805,221.168516,-185.252489)">
            <path d="M638.133,553.008C628.72,559.35 624.458,558.774 600.497,558.707C596.965,558.697 597.721,556.768 597.721,532.5C597.721,503.883 597.303,502.747 599.497,502.472C599.63,502.455 617.721,502.418 619.499,502.519C656.947,504.656 651.165,542.038 638.133,553.008L627.748,514.018C617.21,509.246 609.901,512.609 609.867,512.664C608.917,514.256 609.619,544.698 609.683,547.483C609.746,550.22 616.811,549.454 620.493,549.35C636.424,548.9 642.344,523.535 627.748,514.018L638.133,553.008Z" style="fill:rgb(0,50,99);fill-opacity:1;"/>
        </g>
        <g transform="matrix(3.049805,0,0,3.049805,221.168516,-185.252489)">
            <path d="M0,604.5L0,601.5C19.897,602.355 287.491,599.476 312.49,599.208C313.828,599.138 315.165,599.068 316.503,598.998C327.063,598.945 327.007,598.746 448.502,597.77C449.047,597.766 454.752,597.72 455.254,598.613C455.635,599.29 456.443,607.359 453.51,607.612C449.923,607.922 449.952,607.306 408.502,607.159C401.955,606.981 402.05,606.963 365.491,606.763C270.127,605.803 270.23,605.384 216.502,605.163C209.418,604.964 209.442,604.95 180.489,604.813C166.051,604.661 26.269,603.182 0,604.5Z" style="fill:rgb(2,54,102);fill-opacity:0.96;"/>
        </g>
        <g transform="matrix(3.049805,0,0,3.049805,221.168516,-185.252489)">
            <path d="M640.512,606.756C598.216,606.979 598.252,607.005 595.498,607.162C550.509,607.318 549.81,608.144 549.254,606.616C549.052,606.062 548.311,597.825 550.546,597.761C561.498,597.447 561.486,598.353 687.497,598.996C689.169,599.068 690.841,599.139 692.513,599.211C698.154,599.273 859.203,601.418 1000.5,601.825C1000.783,601.826 1008.663,601.848 1003.285,604.01C1001.387,604.773 992.356,603.648 917.506,603.924C886.903,604.037 886.948,604.141 824.514,604.809C794.861,604.955 794.887,604.958 787.498,605.165C738.872,605.362 738.943,605.685 640.512,606.756Z" style="fill:rgb(2,54,102);fill-opacity:0.95;"/>
        </g>
        <g transform="matrix(3.049805,0,0,3.049805,221.168516,-185.252489)">
            <path d="M894.038,507.963C902.52,518.616 897.448,531.113 887.508,534.514C885.142,535.323 887.066,536.334 898.853,555.276C900.218,557.469 901.046,558.735 898.533,558.756C890.607,558.821 888.895,561.178 884.879,554.273C874.732,536.827 873.815,537.424 873.515,537.411C861.132,536.873 861.05,538.371 861.022,539.443C860.575,556.354 862.526,558.674 858.506,558.706C857.828,558.712 849.188,559.842 849.12,556.534C849.032,552.238 848.041,504.106 849.763,502.827C850.038,502.622 877.885,501.306 887.362,503.919C889.923,504.625 893.553,507.57 894.038,507.963L861.011,521.5C861.341,526.912 860.298,527.977 862.545,528.165C883.528,529.915 885.186,524.414 885.737,522.587C886.827,518.971 886.448,511.907 876.492,511.774C862.872,511.593 862.823,511.442 861.775,511.979C861.042,512.355 861.014,520.736 861.011,521.5L894.038,507.963Z" style="fill:rgb(0,50,99);fill-opacity:1;"/>
        </g>
        <g transform="matrix(3.049805,0,0,3.049805,221.168516,-185.252489)">
            <path d="M453.665,514.58C453.239,517.603 453.332,517.546 452.555,520.516C449.85,531.158 449.816,531.07 446.447,541.482C441.693,556.169 441.761,556.151 441.216,557.374C440.268,559.505 433.252,558.747 432.655,558.271C430.635,556.662 421.621,524.372 420.788,521.386C419.728,516.378 420.559,515.804 418.497,514.692C418.237,514.552 418.282,513.998 417.988,513.966C417.94,513.96 417.575,514.97 417.617,515.529C417.768,517.521 418.078,519.499 418.229,521.492C418.381,524.369 419.888,552.878 418.522,557.508C418.139,558.807 411.138,558.713 410.488,558.704C407.125,558.659 408.184,551.721 408.184,547.5C408.184,503.999 408.147,504.071 408.383,503.446C408.77,502.423 415.846,502.453 416.5,502.456C421.745,502.479 423.33,500.71 425.071,505.661C433.719,530.251 435.231,539.366 435.732,542.384C436.016,542.598 436.299,542.812 436.582,543.026C438.825,541.723 437.205,540.855 440.083,532.353C441.575,527.947 445.817,514.036 446.304,512.44C447.991,506.905 448.276,502.508 451.499,502.466C456.421,502.402 464.815,502.022 465.111,503.612C465.648,506.489 465.235,552.255 465.197,556.485C465.165,560.007 455.568,558.89 454.924,558.124C453.547,556.485 454.745,524.42 454.855,521.491C455.386,515.751 455.525,515.757 455.326,514.576C455.164,513.621 454.75,514.351 454.506,514.256C454.226,514.364 453.945,514.472 453.665,514.58Z" style="fill:rgb(0,50,99);fill-opacity:1;"/>
        </g>
        <g transform="matrix(3.049805,0,0,3.049805,221.168516,-185.252489)">
            <path d="M549.644,525.494C549.638,556.084 549.73,556.093 549.242,558.178C539.1,561.255 539.095,556.343 539.094,555.504C539.089,551.42 539.041,505.115 539.106,504.453C539.449,500.949 552.201,502.121 553.257,503.666C557.275,509.545 567.682,529.053 568.877,531.293C569.869,533.152 571.201,534.369 574.491,541.506C575.343,543.147 574.528,544.063 576.48,544.164C578.052,544.245 577.171,542.562 576.856,540.511C576.628,537.444 576.357,537.507 576.403,505.499C576.41,500.203 586.856,502.408 587.068,503.615C587.157,504.126 587.142,504.105 587.142,553.5C587.142,561.377 583.433,558.764 575.497,558.705C571.315,558.674 569.601,551.288 565.256,544.639C557.736,533.132 552.662,522.377 551.714,520.366C549.92,516.543 550.069,516.29 549.5,516.262C548.347,516.205 549.098,520.148 549.162,520.481C549.322,522.152 549.483,523.823 549.644,525.494Z" style="fill:rgb(0,50,99);fill-opacity:1;"/>
        </g>
        <g transform="matrix(3.049805,0,0,3.049805,221.168516,-185.252489)">
            <path d="M388.986,558.022C387.783,555.934 385.468,548.45 385.206,547.603C383.904,543.394 381.96,544.183 365.497,544.254C361.766,544.269 361.827,547.16 358.62,556.552C357.409,560.097 346.491,559.207 346.445,557.502C346.438,557.267 357.744,526.134 360.002,520.303C365.894,505.09 364.215,502.478 369.5,502.457C375.918,502.432 379.698,501.185 381.487,505.505C387.998,521.225 398.712,552.494 400.122,556.61C401.134,559.562 392.147,559.344 388.986,558.022L368.032,528.312C366.184,533.443 364.542,533.956 366.647,535.198C366.683,535.219 380.294,536 380.636,534.559C381.16,532.353 375.753,521.719 374.481,513.508C373.564,507.595 372.09,515.994 372.039,516.285C371.863,517.284 371.45,517.141 368.032,528.312L388.986,558.022Z" style="fill:rgb(0,50,99);fill-opacity:0.99;"/>
        </g>
        <g transform="matrix(3.049805,0,0,3.049805,221.168516,-185.252489)">
            <path d="M214.612,558.332C213.199,553.854 214.593,519.495 213.889,505.502C214.808,500.652 216.658,502.471 221.5,502.456C224.3,502.448 255.665,502.355 256.502,502.486C259.166,502.903 258.876,511.578 256.536,511.696C248.943,512.078 226.538,510.829 225.955,512.682C225.883,512.912 226.084,513.173 226.012,513.403C225.754,521.778 225.293,521.784 226.151,524.694C230.435,527.773 255.515,523.025 255.698,527.476C255.722,528.057 255.975,534.199 254.56,534.656C254.067,534.815 254.082,534.744 229.501,534.798C227.185,534.803 226.717,534.39 226.02,536.395C225.728,545.561 225.063,545.594 226.268,548.667C230.082,550.918 258.624,547.743 259.587,550.463C262.503,558.704 257.206,558.707 256.501,558.707C215.915,558.732 215.972,558.603 214.612,558.332Z" style="fill:rgb(0,50,99);fill-opacity:1;"/>
        </g>
        <g transform="matrix(3.049805,0,0,3.049805,221.168516,-185.252489)">
            <path d="M839.138,505.502C838.529,513.657 839.576,529.763 838.663,541.537C838.081,543.617 837.761,549.369 830.724,554.806C823.399,560.465 807.776,560.886 799.63,556.293C788.319,549.917 789.809,535.262 789.809,534.5C789.801,503.711 789.645,503.378 790.625,502.732C791.267,502.31 799.875,502.406 800.484,502.554C804.193,503.456 799.161,534.24 803.53,544.485C806.107,550.53 827.005,556.694 827.156,534.499C827.344,506.878 825.997,502.555 829.498,502.458C835.525,502.291 838.002,499.552 839.138,505.502Z" style="fill:rgb(0,50,99);fill-opacity:1;"/>
        </g>
        <g transform="matrix(3.049805,0,0,3.049805,221.168516,-185.252489)">
            <path d="M948.012,506.919C954.319,515.328 950.187,516.065 949.448,516.197C948.745,516.322 941.623,517.592 940.531,516.475C938.884,514.791 940.37,512.924 933.486,510.544C923.389,507.053 910.881,518.333 925.583,523.253C931.397,525.198 958.653,526.822 953.106,547.374C949.225,561.756 913.291,566.291 905.561,546.483C904.253,543.13 908.93,543.296 913.48,542.4C918.637,541.384 916.467,547.93 923.484,549.57C942.922,554.115 947.539,539.793 935.542,536.347C921.964,532.448 906.043,532.214 907.588,515.506C909.079,499.385 936.568,497.994 948.012,506.919Z" style="fill:rgb(0,50,99);fill-opacity:0.99;"/>
        </g>
        <g transform="matrix(3.049805,0,0,3.049805,221.168516,-185.252489)">
            <path d="M159.988,553.023C158.339,550.981 158.352,551.052 157.112,548.684C155.47,545.55 154.267,543.256 154.781,504.519C154.822,501.426 166.289,501.174 166.58,504.493C168.029,521.024 160.987,548.227 176.478,549.752C195.979,551.673 191.262,533.985 191.716,504.516C191.768,501.147 202.976,502.043 203.473,503.511C203.977,505.002 203.681,532.942 203.654,535.501C203.342,564.941 171.814,563.148 159.988,553.023Z" style="fill:rgb(0,50,99);fill-opacity:1;"/>
        </g>
        <g transform="matrix(3.049805,0,0,3.049805,221.168516,-185.252489)">
            <path d="M674.976,511.11C673.874,505.933 673.636,502.464 678.5,502.456C718.085,502.397 718.155,501.682 721.472,502.584C722.81,502.948 722.69,508.95 722.679,509.513C722.594,513.747 707.511,510.961 705.602,511.837C703.356,512.868 704.73,533.935 704.406,556.494C704.36,559.704 697.022,558.776 694.478,558.693C691.775,558.606 692.687,556.695 692.569,514.499C692.554,508.985 680.459,513.331 674.976,511.11Z" style="fill:rgb(0,50,99);fill-opacity:1;"/>
        </g>
        <g transform="matrix(3.049805,0,0,3.049805,221.168516,-185.252489)">
            <path d="M105.988,502.963C106.712,502.725 108.172,502.245 115.503,502.47C118.012,502.546 117.302,504.092 117.372,546.501C117.378,550.296 119.472,549.373 144.501,549.407C148.583,549.412 147.56,553.455 147.491,556.499C147.433,559.027 146.058,558.74 113.5,558.707C108.141,558.702 105.563,560.803 105.56,555.5C105.528,503.899 105.72,503.941 105.988,502.963Z" style="fill:rgb(0,50,99);fill-opacity:1;"/>
        </g>
        <g transform="matrix(3.049805,0,0,3.049805,221.168516,-185.252489)">
            <path d="M338.121,502.906C339.118,505.813 338.921,557.401 338.169,558.176C337.653,558.707 326.784,560.196 326.743,556.487C326.698,552.257 326.189,505.393 326.845,503.608C327.302,502.364 333.939,501.757 338.121,502.906Z" style="fill:rgb(0,50,99);fill-opacity:0.99;"/>
        </g>
        <g transform="matrix(3.049805,0,0,3.049805,221.168516,-185.252489)">
            <path d="M410.462,316.756C410.805,317.096 410.726,317.077 411.47,318.49C403.318,329.135 404.444,329.822 396.248,340.308C395.42,341.367 394.088,343.072 379.553,342.242C377.535,342.126 378.807,339.871 378.91,339.688C385.361,328.244 386.939,318.793 391.523,316.915C403.871,317.374 407.492,317.063 410.462,316.756Z" style="fill:rgb(0,50,99);fill-opacity:0.99;"/>
        </g>
        <g transform="matrix(3.049805,0,0,3.049805,221.168516,-185.252489)">
            <path d="M500.813,616.142C487.009,602.607 486.785,601.999 487.712,600.668C487.73,600.642 497.811,590.567 498.689,589.689C501.255,587.124 501.874,586.015 504.446,588.553C516.872,600.817 517.207,600.841 517.084,602.332C517.029,603.002 504.442,615.173 503.315,616.262C502.044,616.342 502.134,616.385 500.813,616.142Z" style="fill:rgb(2,54,102);fill-opacity:1;"/>
        </g>
        <g transform="matrix(3.049805,0,0,3.049805,221.168516,-185.252489)">
            <path d="M408.502,607.159C405.683,608.344 405.616,608 391.5,608C367.148,608 366.766,608.345 365.491,606.763C402.05,606.963 401.955,606.981 408.502,607.159Z" style="fill:rgb(1,43,83);fill-opacity:0.22;"/>
        </g>
        <g transform="matrix(3.049805,0,0,3.049805,221.168516,-185.252489)">
            <path d="M216.502,605.163C214.557,605.976 214.606,606 212.5,606C182.069,606 181.72,606.272 180.489,604.813C209.442,604.95 209.418,604.964 216.502,605.163Z" style="fill:rgb(1,43,82);fill-opacity:0.22;"/>
        </g>
        <g transform="matrix(3.049805,0,0,3.049805,221.168516,-185.252489)">
            <path d="M499.5,617.999L500.813,616.142C502.134,616.385 502.044,616.342 503.315,616.262L504.5,617.999L499.5,617.999Z" style="fill:rgb(1,36,68);fill-opacity:0.13;"/>
        </g>
        <g transform="matrix(3.049805,0,0,3.049805,221.168516,-185.252489)">
            <path d="M410.462,316.756C411.943,317.44 412.046,317.352 412.057,317.492C412.086,317.877 411.44,318.105 411.47,318.49C410.726,317.077 410.805,317.096 410.462,316.756Z" style="fill:rgb(0,49,97);fill-opacity:0.54;"/>
        </g>
    </g>
</svg>
